# xmcd
#
# Track frame offsets:
#	150
#	16788
#	35291
#	52436
#	70021
#	83576
#	99821
#	117381
#	137308
#	151148
#	167758
#	186978
#	202671
#	222706
#
# Disc length: 3191 seconds
#
# Revision: 1
# Processed by: cddbd v1.4PL0 Copyright (c) Steve Scherf et al.
# Submitted via: EasyCDDAExtractor 6.0.0.1
#
DISCID=b20c750e
DTITLE=Marlon and Maicon - Sempre Amei Você
DYEAR=2003
DGENRE=Sertanejo
TTITLE0=Você Vai se Arrepender
TTITLE1=Baby Bye, Bye
TTITLE2=Chora Coração
TTITLE3=Pode Ir
TTITLE4=Eu Tô na Dela
TTITLE5=Errei em Te Amar
TTITLE6=Rock and Roll Lullaby
TTITLE7=Na Minha Frente
TTITLE8=Somos Iguais
TTITLE9=Quando a Noite Cai
TTITLE10=Chuva no Deserto
TTITLE11=Refém
TTITLE12=Dizer Adeus
TTITLE13=Sempre Amei Você
EXTD=
EXTT0=
EXTT1=
EXTT2=
EXTT3=
EXTT4=
EXTT5=
EXTT6=
EXTT7=
EXTT8=
EXTT9=
EXTT10=
EXTT11=
EXTT12=
EXTT13=
PLAYORDER=
